<mxfile host="app.diagrams.net" modified="2021-02-10T07:26:51.011Z" agent="5.0 (Macintosh; Intel Mac OS X 10_15_7) AppleWebKit/537.36 (KHTML, like Gecko) Chrome/88.0.4324.150 Safari/537.36" etag="jIhEP7GPCB5SqyEakm40" version="14.3.0" type="github">
  <diagram id="PDU8jTjReUtMIc_PnsIN" name="Page-1">
    <mxGraphModel dx="1257" dy="786" grid="1" gridSize="10" guides="1" tooltips="1" connect="1" arrows="1" fold="1" page="1" pageScale="1" pageWidth="827" pageHeight="1169" math="0" shadow="0">
      <root>
        <mxCell id="0" />
        <mxCell id="1" parent="0" />
        <mxCell id="bYfNzuwdiC731I80BKaG-1" value="david" style="rounded=0;whiteSpace=wrap;html=1;" vertex="1" parent="1">
          <mxGeometry x="160" y="160" width="80" height="120" as="geometry" />
        </mxCell>
        <mxCell id="bYfNzuwdiC731I80BKaG-2" value="&lt;b&gt;&lt;font style=&quot;font-size: 14px&quot;&gt;rowkey&lt;/font&gt;&lt;/b&gt;" style="text;html=1;strokeColor=none;fillColor=none;align=center;verticalAlign=middle;whiteSpace=wrap;rounded=0;" vertex="1" parent="1">
          <mxGeometry x="162.5" y="140" width="75" height="20" as="geometry" />
        </mxCell>
        <mxCell id="bYfNzuwdiC731I80BKaG-3" value="lina" style="rounded=0;whiteSpace=wrap;html=1;" vertex="1" parent="1">
          <mxGeometry x="160" y="280" width="80" height="120" as="geometry" />
        </mxCell>
        <mxCell id="bYfNzuwdiC731I80BKaG-4" value="......" style="rounded=0;whiteSpace=wrap;html=1;" vertex="1" parent="1">
          <mxGeometry x="160" y="400" width="80" height="120" as="geometry" />
        </mxCell>
        <mxCell id="bYfNzuwdiC731I80BKaG-5" value="10.0" style="rounded=0;whiteSpace=wrap;html=1;" vertex="1" parent="1">
          <mxGeometry x="240" y="160" width="80" height="20" as="geometry" />
        </mxCell>
        <mxCell id="bYfNzuwdiC731I80BKaG-6" value="2021.01.01T10:00:00" style="rounded=0;whiteSpace=wrap;html=1;" vertex="1" parent="1">
          <mxGeometry x="320" y="160" width="140" height="20" as="geometry" />
        </mxCell>
        <mxCell id="bYfNzuwdiC731I80BKaG-7" value="&lt;b&gt;&lt;font style=&quot;font-size: 14px&quot;&gt;cell&lt;/font&gt;&lt;/b&gt;" style="text;html=1;strokeColor=none;fillColor=none;align=center;verticalAlign=middle;whiteSpace=wrap;rounded=0;" vertex="1" parent="1">
          <mxGeometry x="242.5" y="140" width="75" height="20" as="geometry" />
        </mxCell>
        <mxCell id="bYfNzuwdiC731I80BKaG-8" value="&lt;b&gt;&lt;font style=&quot;font-size: 14px&quot;&gt;timestamp&lt;/font&gt;&lt;/b&gt;" style="text;html=1;strokeColor=none;fillColor=none;align=center;verticalAlign=middle;whiteSpace=wrap;rounded=0;" vertex="1" parent="1">
          <mxGeometry x="352.5" y="140" width="75" height="20" as="geometry" />
        </mxCell>
        <mxCell id="bYfNzuwdiC731I80BKaG-9" value="15.0" style="rounded=0;whiteSpace=wrap;html=1;" vertex="1" parent="1">
          <mxGeometry x="240" y="180" width="80" height="20" as="geometry" />
        </mxCell>
        <mxCell id="bYfNzuwdiC731I80BKaG-10" value="2021.01.01T10:00:00" style="rounded=0;whiteSpace=wrap;html=1;" vertex="1" parent="1">
          <mxGeometry x="320" y="180" width="140" height="20" as="geometry" />
        </mxCell>
        <mxCell id="bYfNzuwdiC731I80BKaG-11" value="30.0" style="rounded=0;whiteSpace=wrap;html=1;" vertex="1" parent="1">
          <mxGeometry x="240" y="200" width="80" height="20" as="geometry" />
        </mxCell>
        <mxCell id="bYfNzuwdiC731I80BKaG-12" value="2021.01.01T10:00:00" style="rounded=0;whiteSpace=wrap;html=1;" vertex="1" parent="1">
          <mxGeometry x="320" y="200" width="140" height="20" as="geometry" />
        </mxCell>
        <mxCell id="bYfNzuwdiC731I80BKaG-13" value="1000.0" style="rounded=0;whiteSpace=wrap;html=1;" vertex="1" parent="1">
          <mxGeometry x="240" y="220" width="80" height="20" as="geometry" />
        </mxCell>
        <mxCell id="bYfNzuwdiC731I80BKaG-14" value="2021.01.01T10:00:00" style="rounded=0;whiteSpace=wrap;html=1;" vertex="1" parent="1">
          <mxGeometry x="320" y="220" width="140" height="20" as="geometry" />
        </mxCell>
        <mxCell id="bYfNzuwdiC731I80BKaG-15" value="&lt;b&gt;&lt;font style=&quot;font-size: 14px&quot;&gt;......&lt;/font&gt;&lt;/b&gt;" style="text;html=1;strokeColor=none;fillColor=none;align=center;verticalAlign=middle;whiteSpace=wrap;rounded=0;" vertex="1" parent="1">
          <mxGeometry x="267.5" y="250" width="160" height="20" as="geometry" />
        </mxCell>
        <mxCell id="bYfNzuwdiC731I80BKaG-16" value="10.0" style="rounded=0;whiteSpace=wrap;html=1;" vertex="1" parent="1">
          <mxGeometry x="240" y="280" width="80" height="20" as="geometry" />
        </mxCell>
        <mxCell id="bYfNzuwdiC731I80BKaG-17" value="2021.01.01T10:00:00" style="rounded=0;whiteSpace=wrap;html=1;" vertex="1" parent="1">
          <mxGeometry x="320" y="280" width="140" height="20" as="geometry" />
        </mxCell>
        <mxCell id="bYfNzuwdiC731I80BKaG-18" value="15.0" style="rounded=0;whiteSpace=wrap;html=1;" vertex="1" parent="1">
          <mxGeometry x="240" y="300" width="80" height="20" as="geometry" />
        </mxCell>
        <mxCell id="bYfNzuwdiC731I80BKaG-19" value="2021.01.01T10:00:00" style="rounded=0;whiteSpace=wrap;html=1;" vertex="1" parent="1">
          <mxGeometry x="320" y="300" width="140" height="20" as="geometry" />
        </mxCell>
        <mxCell id="bYfNzuwdiC731I80BKaG-20" value="30.0" style="rounded=0;whiteSpace=wrap;html=1;" vertex="1" parent="1">
          <mxGeometry x="240" y="320" width="80" height="20" as="geometry" />
        </mxCell>
        <mxCell id="bYfNzuwdiC731I80BKaG-21" value="2021.01.01T10:00:00" style="rounded=0;whiteSpace=wrap;html=1;" vertex="1" parent="1">
          <mxGeometry x="320" y="320" width="140" height="20" as="geometry" />
        </mxCell>
        <mxCell id="bYfNzuwdiC731I80BKaG-22" value="&lt;b&gt;&lt;font style=&quot;font-size: 14px&quot;&gt;......&lt;/font&gt;&lt;/b&gt;" style="text;html=1;strokeColor=none;fillColor=none;align=center;verticalAlign=middle;whiteSpace=wrap;rounded=0;" vertex="1" parent="1">
          <mxGeometry x="267.5" y="360" width="160" height="20" as="geometry" />
        </mxCell>
        <mxCell id="bYfNzuwdiC731I80BKaG-23" style="edgeStyle=orthogonalEdgeStyle;rounded=0;orthogonalLoop=1;jettySize=auto;html=1;exitX=0.5;exitY=1;exitDx=0;exitDy=0;" edge="1" parent="1" source="bYfNzuwdiC731I80BKaG-22" target="bYfNzuwdiC731I80BKaG-22">
          <mxGeometry relative="1" as="geometry" />
        </mxCell>
        <mxCell id="bYfNzuwdiC731I80BKaG-24" value="&lt;b&gt;&lt;font style=&quot;font-size: 18px&quot; color=&quot;#ff3333&quot;&gt;用户今日交易金额&lt;/font&gt;&lt;/b&gt;" style="text;html=1;strokeColor=none;fillColor=none;align=center;verticalAlign=middle;whiteSpace=wrap;rounded=0;" vertex="1" parent="1">
          <mxGeometry x="150" y="40" width="460" height="60" as="geometry" />
        </mxCell>
        <mxCell id="bYfNzuwdiC731I80BKaG-25" value="" style="shape=curlyBracket;whiteSpace=wrap;html=1;rounded=1;direction=west;" vertex="1" parent="1">
          <mxGeometry x="460" y="160" width="20" height="120" as="geometry" />
        </mxCell>
        <mxCell id="bYfNzuwdiC731I80BKaG-26" value="david今日交易￥1055" style="text;html=1;strokeColor=none;fillColor=none;align=center;verticalAlign=middle;whiteSpace=wrap;rounded=0;fontStyle=1" vertex="1" parent="1">
          <mxGeometry x="470" y="210" width="170" height="20" as="geometry" />
        </mxCell>
        <mxCell id="bYfNzuwdiC731I80BKaG-27" value="" style="shape=curlyBracket;whiteSpace=wrap;html=1;rounded=1;direction=west;" vertex="1" parent="1">
          <mxGeometry x="460" y="280" width="20" height="120" as="geometry" />
        </mxCell>
        <mxCell id="bYfNzuwdiC731I80BKaG-28" value="lina今日交易￥55.0" style="text;html=1;strokeColor=none;fillColor=none;align=center;verticalAlign=middle;whiteSpace=wrap;rounded=0;fontStyle=1" vertex="1" parent="1">
          <mxGeometry x="470" y="330" width="170" height="20" as="geometry" />
        </mxCell>
      </root>
    </mxGraphModel>
  </diagram>
</mxfile>
